<svg width="99" height="53" viewBox="0 0 99 53" fill="none" xmlns="http://www.w3.org/2000/svg">
<path d="M2.79508 51.9896L0.352332 45.4756H1.01447L2.79508 50.4237L4.5757 45.4756H5.23783L2.79508 51.9896ZM9.25861 51.739V45.4756H9.86706V51.739H9.25861ZM13.8859 51.739L16.6955 45.2966L19.4962 51.739H18.8698L18.0019 49.6989H15.3802L14.5122 51.739H13.8859ZM15.5949 49.1978H17.7871L16.6955 46.6298L15.5949 49.1978ZM24.5017 51.739V45.9766H22.8284V45.4756H26.7834V45.9766H25.1101V51.739H24.5017ZM30.7998 51.739V45.4756H34.1552V45.9766H31.4082V47.9809H34.0568V48.482H31.4082V51.2379H34.1552V51.739H30.7998ZM38.5714 51.739V45.4756H39.1799V48.3836L41.9805 45.4756H42.7321L39.7615 48.5089L42.7948 51.739H41.9805L39.1799 48.6968V51.739H38.5714Z" fill="#59955C"/>
<path d="M56.2601 46.2451L55.7769 46.5314C55.771 46.5195 55.765 46.5045 55.759 46.4867C55.7531 46.4688 55.7441 46.4538 55.7322 46.4419C55.6487 46.2809 55.5204 46.1347 55.3474 46.0035C55.1744 45.8663 54.9418 45.7977 54.6495 45.7977C54.3333 45.7977 54.0947 45.8633 53.9337 45.9945C53.7726 46.1198 53.6623 46.257 53.6026 46.4061C53.5728 46.4658 53.5519 46.5254 53.54 46.5851C53.534 46.6447 53.531 46.7014 53.531 46.7551C53.531 47.0712 53.6473 47.3188 53.88 47.4978C54.1186 47.6767 54.3811 47.8318 54.6674 47.963C54.7151 47.9869 54.7628 48.0108 54.8106 48.0346C54.8583 48.0525 54.906 48.0734 54.9537 48.0973C54.9716 48.1032 54.9865 48.1122 54.9985 48.1241C55.0164 48.1301 55.0343 48.136 55.0521 48.142C55.4339 48.3269 55.7829 48.5476 56.099 48.8041C56.4212 49.0606 56.5822 49.4603 56.5822 50.0031C56.5822 50.5161 56.4003 50.9635 56.0364 51.3453C55.6785 51.7211 55.1893 51.909 54.569 51.909C54.1216 51.909 53.7577 51.8166 53.4773 51.6316C53.2029 51.4467 52.9852 51.2439 52.8241 51.0232C52.7645 50.9337 52.7108 50.8472 52.6631 50.7637C52.6154 50.6742 52.5766 50.5907 52.5468 50.5132L53.1194 50.2268C53.1254 50.2507 53.1343 50.2775 53.1463 50.3074C53.1582 50.3312 53.1701 50.3551 53.1821 50.3789C53.2894 50.6414 53.4594 50.88 53.6921 51.0948C53.9307 51.3095 54.2409 51.4169 54.6227 51.4169C55.0283 51.4169 55.3474 51.2827 55.5801 51.0142C55.8187 50.7398 55.938 50.4147 55.938 50.0389C55.938 49.7526 55.8694 49.5259 55.7322 49.3589C55.6009 49.1859 55.4041 49.0219 55.1416 48.8668C55.0581 48.819 54.9657 48.7713 54.8642 48.7236C54.7628 48.6699 54.6525 48.6162 54.5332 48.5625C54.1156 48.3657 53.7398 48.136 53.4058 47.8736C53.0717 47.6111 52.9047 47.2442 52.9047 46.773C52.9047 46.6895 52.9106 46.6 52.9226 46.5045C52.9405 46.4091 52.9673 46.3137 53.0031 46.2182C53.0926 45.9856 53.2596 45.7738 53.5042 45.5829C53.7547 45.392 54.1275 45.2966 54.6227 45.2966C54.7241 45.2966 54.8404 45.3055 54.9716 45.3234C55.1088 45.3354 55.246 45.3682 55.3832 45.4219C55.5502 45.4815 55.7113 45.577 55.8664 45.7082C56.0215 45.8335 56.1527 46.0124 56.2601 46.2451ZM60.1925 51.739L63.0021 45.2966L65.8028 51.739H65.1765L64.3085 49.6989H61.6868L60.8189 51.739H60.1925ZM61.9016 49.1978H64.0938L63.0021 46.6298L61.9016 49.1978ZM69.4125 51.739L70.2625 45.225L72.8753 50.8084L75.488 45.225L76.3381 51.739H75.7744L75.1749 47.1041L72.8753 51.9896L70.5757 47.1041L69.9762 51.739H69.4125ZM80.6366 51.739V45.4756H82.3724C82.4798 45.4756 82.5991 45.4815 82.7304 45.4934C82.8616 45.5054 82.9988 45.5292 83.142 45.565C83.4164 45.6426 83.6699 45.7977 83.9025 46.0303C84.1352 46.257 84.2515 46.6239 84.2515 47.1309C84.2515 47.6379 84.1352 48.0078 83.9025 48.2404C83.6758 48.4731 83.4223 48.6282 83.142 48.7057C83.0048 48.7415 82.8676 48.7654 82.7304 48.7773C82.5932 48.7892 82.4739 48.7952 82.3724 48.7952H81.245V51.739H80.6366ZM81.245 45.9766V48.2941H82.3456C82.4172 48.2941 82.4977 48.2911 82.5872 48.2852C82.6826 48.2732 82.7811 48.2553 82.8825 48.2315C83.0674 48.1778 83.2374 48.0704 83.3925 47.9094C83.5476 47.7423 83.6251 47.4828 83.6251 47.1309C83.6251 46.7789 83.5446 46.5224 83.3835 46.3614C83.2285 46.2003 83.0584 46.0929 82.8735 46.0393C82.7781 46.0154 82.6826 46.0005 82.5872 45.9945C82.4977 45.9826 82.4172 45.9766 82.3456 45.9766H81.245ZM88.583 51.739V45.4756H89.1915V51.2379H91.2137V51.739H88.583ZM95.2274 51.739V45.4756H98.5829V45.9766H95.8359V47.9809H98.4844V48.482H95.8359V51.2379H98.5829V51.739H95.2274Z" fill="#2E3441"/>
<mask id="mask0_193_1142" style="mask-type:alpha" maskUnits="userSpaceOnUse" x="1" y="0" width="46" height="38">
<path fill-rule="evenodd" clip-rule="evenodd" d="M14.9675 0.0145882H1L17.3484 37.4353H30.9265L46.2941 0H37.2272L26.0252 26.9702L14.9675 0.0145882Z" fill="black"/>
</mask>
<g mask="url(#mask0_193_1142)">
<rect x="-238.647" y="-1.76471" width="280.353" height="40.9412" fill="url(#paint0_linear_193_1142)"/>
</g>
<mask id="mask1_193_1142" style="mask-type:alpha" maskUnits="userSpaceOnUse" x="17" y="0" width="46" height="38">
<path fill-rule="evenodd" clip-rule="evenodd" d="M30.9681 37.4118H17.3398L33.4617 0.00306702H46.2238L62.2934 37.2658H52.8188L42.0186 10.4235L30.9681 37.4118Z" fill="#1B3E8B"/>
</mask>
<g mask="url(#mask1_193_1142)">
<rect x="-231.19" y="-1.76471" width="280.353" height="40.9412" fill="url(#paint1_linear_193_1142)"/>
</g>
<mask id="mask2_193_1142" style="mask-type:alpha" maskUnits="userSpaceOnUse" x="33" y="0" width="66" height="38">
<path fill-rule="evenodd" clip-rule="evenodd" d="M33.4854 0L46.2261 0.0145882L56.0753 22.1393L65.6528 0.00306061H68.4848L68.4861 0H73.0913L73.0901 0.00306061H82.8183L98.8882 37.2658H85.0097L74.2095 10.4235L63.3051 37.2658H57.8937L57.8937 37.2659H48.683L33.4854 0Z" fill="#19BF84"/>
</mask>
<g mask="url(#mask2_193_1142)">
<rect x="-181.353" y="-1.76471" width="280.353" height="40.9412" fill="url(#paint2_linear_193_1142)"/>
</g>
<defs>
<linearGradient id="paint0_linear_193_1142" x1="-238.647" y1="-1.76471" x2="41.7055" y2="-1.76471" gradientUnits="userSpaceOnUse">
<stop stop-color="#305A4B"/>
<stop offset="0.226479"/>
<stop offset="0.5625" stop-color="#59955C"/>
<stop offset="0.872405" stop-color="#305A4B"/>
<stop offset="1" stop-color="#305A4B"/>
</linearGradient>
<linearGradient id="paint1_linear_193_1142" x1="-231.19" y1="10.7059" x2="49.1625" y2="10.7059" gradientUnits="userSpaceOnUse">
<stop stop-color="#8DCD90"/>
<stop offset="0.25" stop-color="#8DCD90"/>
<stop offset="0.463542" stop-color="#003220"/>
<stop offset="0.755208" stop-color="#59955C"/>
<stop offset="1" stop-color="#59955C"/>
</linearGradient>
<linearGradient id="paint2_linear_193_1142" x1="-181.353" y1="10.7059" x2="99.0004" y2="10.7059" gradientUnits="userSpaceOnUse">
<stop stop-color="#59955C"/>
<stop offset="0.25" stop-color="#59955C"/>
<stop offset="0.463542" stop-color="#305A4B"/>
<stop offset="0.755208" stop-color="#8DCD90"/>
<stop offset="1" stop-color="#8DCD90"/>
</linearGradient>
</defs>
</svg>
